<?xml version="1.0" encoding="UTF-8" standalone="no"?>
<svg
   xmlns:dc="http://purl.org/dc/elements/1.1/"
   xmlns:cc="http://creativecommons.org/ns#"
   xmlns:rdf="http://www.w3.org/1999/02/22-rdf-syntax-ns#"
   xmlns:svg="http://www.w3.org/2000/svg"
   xmlns="http://www.w3.org/2000/svg"
   xmlns:sodipodi="http://sodipodi.sourceforge.net/DTD/sodipodi-0.dtd"
   xmlns:inkscape="http://www.inkscape.org/namespaces/inkscape"
   width="210mm"
   height="297mm"
   viewBox="0 0 210 297"
   version="1.1"
   id="svg8"
   inkscape:version="1.0.1 (3bc2e813f5, 2020-09-07)"
   sodipodi:docname="testPlot.svg">
  <defs
     id="defs2">
    <rect
       x="43.845238"
       y="38.553571"
       width="71.059524"
       height="25.702381"
       id="rect835" />
  </defs>
  <sodipodi:namedview
     id="base"
     pagecolor="#ffffff"
     bordercolor="#666666"
     borderopacity="1.0"
     inkscape:pageopacity="0.0"
     inkscape:pageshadow="2"
     inkscape:zoom="1.4"
     inkscape:cx="303.06076"
     inkscape:cy="328.1713"
     inkscape:document-units="mm"
     inkscape:current-layer="layer1"
     inkscape:document-rotation="0"
     showgrid="false"
     inkscape:window-width="3840"
     inkscape:window-height="2071"
     inkscape:window-x="-9"
     inkscape:window-y="-9"
     inkscape:window-maximized="1" />
  <metadata
     id="metadata5">
    <rdf:RDF>
      <cc:Work
         rdf:about="">
        <dc:format>image/svg+xml</dc:format>
        <dc:type
           rdf:resource="http://purl.org/dc/dcmitype/StillImage" />
        <dc:title></dc:title>
      </cc:Work>
    </rdf:RDF>
  </metadata>
  <g
     inkscape:label="Layer 1"
     inkscape:groupmode="layer"
     id="layer1">
    <g
       aria-label="test Plot"
       transform="matrix(2.1616709,0,0,3.3562152,-64.736544,-105.20358)"
       id="text833"
       style="font-size:8px;line-height:1.25;font-family:Ebrima;-inkscape-font-specification:'Ebrima, Normal';white-space:pre;shape-inside:url(#rect835)">
      <path
         d="m 46.349609,45.719707 q -0.226562,0.125 -0.597656,0.125 -1.050781,0 -1.050781,-1.171875 v -2.367187 h -0.6875 V 41.75877 h 0.6875 v -0.976563 l 0.640625,-0.207031 v 1.183594 h 1.007812 v 0.546875 h -1.007812 v 2.253906 q 0,0.402344 0.136719,0.574219 0.136718,0.171875 0.453125,0.171875 0.242187,0 0.417968,-0.132813 z"
         id="path856" />
      <path
         d="m 50.419922,43.918926 h -2.824219 q 0.01563,0.667969 0.359375,1.03125 0.34375,0.363281 0.945313,0.363281 0.675781,0 1.242187,-0.445312 v 0.601562 q -0.527344,0.382813 -1.394531,0.382813 -0.847656,0 -1.332031,-0.542969 -0.484375,-0.546875 -0.484375,-1.535156 0,-0.933594 0.527343,-1.519531 0.53125,-0.589844 1.316407,-0.589844 0.785156,0 1.214843,0.507812 0.429688,0.507813 0.429688,1.410157 z m -0.65625,-0.542969 q -0.0039,-0.554687 -0.269531,-0.863281 -0.261719,-0.308594 -0.730469,-0.308594 -0.453125,0 -0.769531,0.324219 -0.316407,0.324219 -0.390625,0.847656 z"
         id="path858" />
      <path
         d="m 51.146484,45.614239 v -0.6875 q 0.523438,0.386718 1.152344,0.386718 0.84375,0 0.84375,-0.5625 0,-0.160156 -0.07422,-0.269531 -0.07031,-0.113281 -0.195312,-0.199219 -0.121094,-0.08594 -0.289063,-0.152343 -0.164062,-0.07031 -0.355468,-0.144532 -0.265625,-0.105468 -0.46875,-0.210937 -0.199219,-0.109375 -0.335938,-0.242188 -0.132812,-0.136718 -0.203125,-0.308593 -0.06641,-0.171875 -0.06641,-0.402344 0,-0.28125 0.128906,-0.496094 0.128906,-0.21875 0.34375,-0.363281 0.214844,-0.148438 0.488281,-0.222656 0.277344,-0.07422 0.570313,-0.07422 0.519531,0 0.929687,0.179687 v 0.648438 q -0.441406,-0.289063 -1.015625,-0.289063 -0.179687,0 -0.324218,0.04297 -0.144532,0.03906 -0.25,0.113281 -0.101563,0.07422 -0.160157,0.179688 -0.05469,0.101562 -0.05469,0.226562 0,0.15625 0.05469,0.261719 0.05859,0.105469 0.167969,0.1875 0.109375,0.08203 0.265625,0.148438 0.15625,0.06641 0.355469,0.144531 0.265625,0.101562 0.476562,0.210937 0.210938,0.105469 0.359375,0.242188 0.148438,0.132812 0.226563,0.308594 0.08203,0.175781 0.08203,0.417968 0,0.296875 -0.132812,0.515625 -0.128907,0.21875 -0.347657,0.363282 -0.21875,0.144531 -0.503906,0.214843 -0.285156,0.07031 -0.597656,0.07031 -0.617188,0 -1.070313,-0.238281 z"
         id="path860" />
      <path
         d="m 56.638672,45.719707 q -0.226563,0.125 -0.597656,0.125 -1.050782,0 -1.050782,-1.171875 v -2.367187 h -0.6875 V 41.75877 h 0.6875 v -0.976563 l 0.640625,-0.207031 v 1.183594 h 1.007813 v 0.546875 h -1.007813 v 2.253906 q 0,0.402344 0.136719,0.574219 0.136719,0.171875 0.453125,0.171875 0.242188,0 0.417969,-0.132813 z"
         id="path862" />
      <path
         d="m 60.427734,43.641582 v 2.117188 h -0.65625 v -5.601563 h 1.539063 q 0.898437,0 1.390625,0.4375 0.496094,0.4375 0.496094,1.234375 0,0.796875 -0.550782,1.304688 -0.546875,0.507812 -1.480468,0.507812 z m 0,-2.890625 v 2.296875 h 0.6875 q 0.679688,0 1.035157,-0.308593 0.359375,-0.3125 0.359375,-0.878907 0,-1.109375 -1.3125,-1.109375 z"
         id="path864" />
      <path
         d="m 64.806641,45.75877 h -0.640625 v -5.921875 h 0.640625 z"
         id="path866" />
      <path
         d="m 67.775391,45.85252 q -0.886719,0 -1.417969,-0.558594 -0.527344,-0.5625 -0.527344,-1.488281 0,-1.007813 0.550781,-1.574219 0.550782,-0.566406 1.488282,-0.566406 0.894531,0 1.394531,0.550781 0.503906,0.550781 0.503906,1.527344 0,0.957031 -0.542969,1.535156 -0.539062,0.574219 -1.449218,0.574219 z m 0.04687,-3.648438 q -0.617188,0 -0.976563,0.421875 -0.359375,0.417969 -0.359375,1.15625 0,0.710938 0.363281,1.121094 0.363282,0.410156 0.972657,0.410156 0.621093,0 0.953125,-0.402343 0.335937,-0.402344 0.335937,-1.144532 0,-0.75 -0.335937,-1.15625 -0.332032,-0.40625 -0.953125,-0.40625 z"
         id="path868" />
      <path
         d="m 72.646484,45.719707 q -0.226562,0.125 -0.597656,0.125 -1.050781,0 -1.050781,-1.171875 v -2.367187 h -0.6875 V 41.75877 h 0.6875 v -0.976563 l 0.640625,-0.207031 v 1.183594 h 1.007812 v 0.546875 h -1.007812 v 2.253906 q 0,0.402344 0.136719,0.574219 0.136718,0.171875 0.453125,0.171875 0.242187,0 0.417968,-0.132813 z"
         id="path870" />
    </g>
    <rect
       style="fill:none;stroke:#000000;stroke-width:1"
       id="rect839"
       width="15.497024"
       height="8.6934528"
       x="10.394345"
       y="54.050598" />
    <rect
       style="fill:none;stroke:#000000;stroke-width:1"
       id="rect839-1"
       width="15.497025"
       height="8.6934528"
       x="55.751488"
       y="61.232143" />
  </g>
</svg>
